<svg id="Capa_1" enable-background="new 0 0 512 512" height="512" viewBox="0 0 512 512" width="512" xmlns="http://www.w3.org/2000/svg"><g><path d="m85.142 462.802c-22.657-5.803-36.321-28.874-30.519-51.531 15.839-61.85 60.309-123.371 97.356-156.904 17.34-15.697 44.121-14.362 59.816 2.977 15.696 17.34 14.363 44.121-2.977 59.817-27.598 24.982-61.242 72.547-72.145 115.122-5.821 22.728-28.944 36.303-51.531 30.519z" fill="#404656"/><path d="m385.376 252.685c-8.571-14.34-3.893-32.913 10.447-41.484 9.248-5.526 22.802-22.583 32.234-48.229 7.807-21.224 15.394-55.29 7.204-97.043-3.215-16.395 7.468-32.291 23.862-35.506 16.389-3.227 32.29 7.467 35.506 23.86 18.256 93.073-20.963 180.875-67.77 208.85-14.281 8.533-32.875 3.955-41.483-10.448z" fill="#404656"/><path d="m499.597 409.848c-21.66-21.66-35.084-36.53-39.601-48.443-3.072-8.102-3.247-19.491 3.032-48.734.015-.07.025-.14.039-.21 4.289-13.754 5.567-28.678 3.164-43.871-8.351-52.802-57.915-88.842-110.73-80.488-12.392 1.964-31.613 5.213-37.287 4.729-1.973-.173-8.606-1.532-27.526-10.413-48.395-22.714-106.039-1.896-128.754 46.497 9.382 36.822 13.147 74.865 15.459 105.656.155.173.302.352.458.524-19.183 28.536-35.691 61.318-44.11 94.193-5.802 22.657 7.861 45.728 30.519 51.531 22.588 5.784 45.711-7.791 51.531-30.52 6.418-25.061 20.718-51.848 37.024-74.743 45.898 14.894 77.566 12.449 124.48 5.101 9.716 35.532 35.799 62.471 62.41 89.083 16.541 16.54 43.354 16.535 59.891 0 16.538-16.539 16.538-43.353.001-59.892z" fill="#565e75"/><path d="m351.523 188.732-.587.093c-14.34 2.277-27.879 4.419-32.722 4.006-1.973-.173-8.606-1.532-27.526-10.413-48.395-22.714-106.039-1.896-128.754 46.497-16.997 36.212-9.608 77.594 15.459 105.656 45.534-1.225 85.548-12.568 116.133-33.002 37.508-25.059 58.164-62.78 58.164-106.213.001-2.217-.064-4.424-.167-6.624z" fill="#404656"/><path d="m100.455 119.304 31.29-31.29c-26.563-43.374-65.114-59.5-101.523-56.769-11.863.891-21.859 8.025-26.767 18.163 13.961 34.948 51.553 62.263 97 69.896z" fill="#404656"/><path d="m3.455 49.408c-1.74 3.593-2.846 7.561-3.161 11.766-2.731 36.409 13.395 74.961 56.769 101.523l43.393-43.393c-21.297-39.284-62.794-59.965-97.001-69.896z" fill="#eda1ab"/><path d="m237.746 119.304-31.29-31.29c26.563-43.374 65.114-59.5 101.523-56.769 11.863.89 21.859 8.025 26.767 18.162-13.961 34.949-51.552 62.264-97 69.897z" fill="#404656"/><path d="m334.747 49.408c1.74 3.593 2.846 7.561 3.161 11.766 2.731 36.409-13.395 74.961-56.769 101.523l-43.393-43.393c21.297-39.284 62.794-59.965 97.001-69.896z" fill="#eda1ab"/><path d="m17.416 195.355c0 70.14 67.911 108.426 151.685 108.426 83.773 0 151.684-38.286 151.684-108.426s-67.911-126.999-151.684-126.999-151.685 56.859-151.685 126.999z" fill="#565e75"/><g><g fill="#eda1ab"><ellipse cx="251.643" cy="201.601" rx="30.42" ry="24.225" transform="matrix(1 -.002 .002 1 -.441 .551)"/><ellipse cx="86.756" cy="201.962" rx="30.42" ry="24.225" transform="matrix(1 -.002 .002 1 -.443 .191)"/></g><path d="m233.622 191.058c-4.142 0-7.5-3.357-7.5-7.5v-12.362c0-4.143 3.358-7.5 7.5-7.5s7.5 3.357 7.5 7.5v12.362c0 4.142-3.358 7.5-7.5 7.5z" fill="#fff"/><path d="m104.955 191.058c-4.142 0-7.5-3.357-7.5-7.5v-12.362c0-4.143 3.358-7.5 7.5-7.5s7.5 3.357 7.5 7.5v12.362c0 4.142-3.358 7.5-7.5 7.5z" fill="#fff"/><g><path d="m183.993 213.32c-5.712 0-10.932-2.15-14.892-5.684-3.96 3.533-9.18 5.684-14.892 5.684-12.347 0-22.392-10.045-22.392-22.393 0-4.143 3.358-7.5 7.5-7.5s7.5 3.357 7.5 7.5c0 4.076 3.316 7.393 7.392 7.393s7.392-3.316 7.392-7.393c0-4.143 3.358-7.5 7.5-7.5s7.5 3.357 7.5 7.5c0 4.076 3.316 7.393 7.392 7.393s7.392-3.316 7.392-7.393c0-4.143 3.358-7.5 7.5-7.5s7.5 3.357 7.5 7.5c0 12.348-10.045 22.393-22.392 22.393z" fill="#fff"/></g></g></g></svg>